# xmcd
#
# Track frame offsets:
#	150
#	16731
#	27972
#	49066
#	65587
#	84645
#	97594
#	109707
#	120440
#	132220
#	148820
#	166054
#	178453
#	194265
#
# Disc length: 2773 seconds
#
# Revision: 0
# Processed by: cddbd v1.5.2PL0 Copyright (c) Steve Scherf et al.
# Submitted via: EasyCDDAExtractor 11.1.0.1
#
DISCID=b50ad30e
DTITLE=Bjarne Farmand - Livin' on love
DYEAR=2008
DGENRE=country
TTITLE0=Livin' on love
TTITLE1=Shelter of your eyes
TTITLE2=Back home again
TTITLE3=California blue
TTITLE4=Cottage in the country
TTITLE5=Fighting side of me
TTITLE6=Four walls
TTITLE7=Love me tonight
TTITLE8=Loves gone live here
TTITLE9=Maggie
TTITLE10=When my blue moon turns to gold again
TTITLE11=Okie from Muskogie
TTITLE12=Together again
TTITLE13=You're my best friend
EXTD=
EXTT0=
EXTT1=
EXTT2=
EXTT3=
EXTT4=
EXTT5=
EXTT6=
EXTT7=
EXTT8=
EXTT9=
EXTT10=
EXTT11=
EXTT12=
EXTT13=
PLAYORDER=
